<svg xmlns="http://www.w3.org/2000/svg" viewBox="0 0 1024 1024">
  <path d="M136 384h56c4.4 0 8-3.6 8-8V200h176c4.4 0 8-3.6 8-8v-56c0-4.4-3.6-8-8-8H196c-37.6 0-68 30.4-68 68v180c0 4.4 3.6 8 8 8zm512-184h176v176c0 4.4 3.6 8 8 8h56c4.4 0 8-3.6 8-8V196c0-37.6-30.4-68-68-68H648c-4.4 0-8 3.6-8 8v56c0 4.4 3.6 8 8 8zm0 624h176c37.6 0 68-30.4 68-68V576c0-4.4-3.6-8-8-8h-56c-4.4 0-8 3.6-8 8v176H648c-4.4 0-8 3.6-8 8v56c0 4.4 3.6 8 8 8zM376 824H200V648c0-4.4-3.6-8-8-8h-56c-4.4 0-8 3.6-8 8v180c0 37.6 30.4 68 68 68h180c4.4 0 8-3.6 8-8v-56c0-4.4-3.6-8-8-8zm-24-424h272c4.4 0 8-3.6 8-8v-80c0-4.4-3.6-8-8-8H352c-4.4 0-8 3.6-8 8v80c0 4.4 3.6 8 8 8zm-24 72h320v64H328v-64z"/>
</svg> 